<svg xmlns="http://www.w3.org/2000/svg" xml:space="preserve" width="1000px" height="180.223px" x="0px" y="0px" viewBox="0 409.889 1000 180.223"><g fill="#FF0029"><path d="M111 553.611c4 2.5 8 5 12 7 43 19 106.5 30.5 118.5 26.5 33.5-11 71-81.5 82.5-114 0 0-35 14-70.5 30.5-29.5 14-62 30-62 30l82.5-25s-22 52-51 58-80-14.5-80-14.5c4-3.5 58-43 184-94.5 5.5-4 9-10.5 10-17-29 3-57 11.5-83.5 24-53 25-142.5 89-142.5 89zm-92-25.5c9 11.5 46 21 51 22-23-16-70-60-70-60 5 13.5 11.5 26 19 38z"/><path d="M128 522.611c24.5-18 111.5-91.5 195.5-111.5 0 0-44-7-106.5 12.5-22.5 7-55 38.5-115.5 97-8 4.5-37.5-12.5-54.5-20.5 0 0 28 44.5 38 57.5 15 20.5 42.5 32.5 42.5 32.5-2.5-2.5-21.5-22.5-27-34-3.5-5.5.5-13.5 27.5-33.5zm511.5-80.5h-15v44.5h-28v-44.5h-15v52h58v-52zm125 44H727v-44h-15.501v52h46l7.001-8zm6.5-44h15.5v52H771v-52zm187.5 7.5H993l7-7.5h-57v52h15.5v-25.5H992l6-8h-39.5v-11zm-425.5 27.5h41.5v-31c0-2-1.5-4-3.5-4h-53.5v51.5H533v-16.5zm0-27.5h25c.5 0 1.5 0 1.5 2.5v17.5H533v-20zm170.5 12.5H699v-15c0-3-1.5-5-4-5h-48.5v52H703l.5-32zm-15.501 24H662v-16.5h25.999v16.5zm0-24H662v-12.5h24.499c1.5 0 1.5 2 1.5 2.5v10zm-185.499-12.5 8-7.5h-58v51.5h58l-8-7.5H468v-14h39v-8.5h-39v-14h34.5zm307.5 0h35l7.5-7.5h-58v51.5H845l7.5-7.5H810v-36.5zm-40 81 6.5-7.5h-59v28H760v15.5h-44.5l9.5 8h51v-31.5h-43.001v-12.5H770zm-267-7.5h-55v51.5h15.5v-22H491v22h15.5v-47c.5-2-1-4-3.5-4.5zm-12 22h-27v-14.5h25.5c1.5 0 1.5 1.5 1.5 2.5v12zm145-14.5 8-7.5h-58.5v51.5H644l-8-7.5h-35v-14h39.5v-8.5H601v-14h35zm-204 .5 8-8h-61v51.5h59v-28h-15.5v20.5H395v-36h37zm83-8v52h16v-30l15 10.5 15.5-10.5v30H577v-52l-31 20.5-31-20.5zm194 29.5v-25c0-2.5-1.5-5-4-5h-56v52h15.5v-44h27c1.5 0 1.5 1.5 1.5 2.5v10h-25.5l28 31.5H714l-19.5-22H709zm-265.5-74v-31.5c0-2.5 0-5-3-5H379v36l16 17.5v-46h30c2 0 2.5.5 2.5 2.5v16.5H401l42.5 44.5v-17.5l-16-17.5h16v.5zm487-36.5H878v37.5l12.5 14.5H934v-48c0-2-1.5-4-3.5-4zm-12 44H902l-8.5-10v-26.5h25v36.5z"/></g></svg>